<svg width="102" height="352" viewBox="0 0 102 352" fill="none" xmlns="http://www.w3.org/2000/svg">
<rect x="22.6667" y="142.8" width="56.6667" height="126.933" fill="#373737"/>
<rect x="43.0667" y="9.06665" width="15.8667" height="27.2" fill="#373737"/>
<path d="M61.3336 9.71149C52.6305 1.00842 37.869 7.40349 37.853 19.4724C37.7888 40.8855 38.5902 30.8842 34.7115 34.7629C33.3492 36.1252 33.7178 35.5643 33.6697 55.9676C24.1172 55.9996 25.784 54.1084 25.7039 79.4803C20.6872 80.2657 17.2893 84.529 17.2573 89.2733L16.6643 307.459C16.6162 321.003 27.5631 331.949 41.1226 331.917L60.388 331.853C73.8833 331.821 84.9104 320.794 84.9425 307.299L85.5355 89.113C85.5515 84.3527 82.1697 80.1054 77.153 79.32L77.2171 59.2533C77.2171 57.362 75.6945 55.8394 73.8032 55.8394L69.3315 55.8554L69.3956 37.0709C69.3956 35.1796 67.8729 33.6569 65.9816 33.6569C65.02 33.6569 65.3085 35.7406 65.3566 19.4083C65.3726 15.7379 63.9301 12.2759 61.3496 9.69546L61.3336 9.71149ZM58.5448 19.4243L58.5127 33.7211L44.6167 33.7691L44.6647 19.5205C44.6808 15.6898 47.8062 12.5324 51.6528 12.5324C55.4835 12.5163 58.5768 15.6097 58.5608 19.4403L58.5448 19.4243ZM60.3559 325.058C60.5162 325.218 59.9712 325.058 41.0905 325.122C31.3136 325.154 23.428 317.268 23.46 307.491L23.5562 274.185L78.2268 274.041L78.1307 307.315C78.0986 317.092 70.1328 325.058 60.3559 325.09L60.3559 325.058ZM27.2266 86.1318L75.6304 86.0036C77.3614 86.0036 78.7397 87.382 78.7397 89.113L78.6115 136.972L23.9409 137.116L24.0691 89.2893C24.0691 87.5583 25.4956 86.1318 27.2426 86.1158L27.2266 86.1318ZM32.4997 79.32L32.5478 62.7954L70.4053 62.6992L70.3733 79.2399C30.8328 79.3521 32.4837 79.6246 32.5157 79.336L32.4997 79.32ZM78.5955 143.784C78.2269 267.854 78.4032 267.39 78.2429 267.229L23.5722 267.374L23.9248 143.928L78.5955 143.784ZM40.4655 55.9676L40.5136 40.5649L61.9266 40.5008C62.8883 40.5008 62.5998 38.289 62.5517 55.9035L40.4655 55.9676Z" fill="black"/>
</svg>
